<svg width="28" height="17" viewBox="0 0 28 17" fill="none" xmlns="http://www.w3.org/2000/svg">
<path d="M7.86879 0C8.66746 0 9.38614 0.0691556 10.0451 0.210178C10.7001 0.349845 11.2588 0.580362 11.7306 0.899019C12.1957 1.21768 12.5591 1.64074 12.8208 2.17229C13.0744 2.69706 13.2005 3.35335 13.2005 4.12898C13.2005 4.96969 13.0107 5.67209 12.6297 6.23211C12.2459 6.79349 11.6805 7.25317 10.9265 7.60844C11.953 7.9054 12.7137 8.42474 13.2182 9.1624C13.7253 9.90684 13.9734 10.7977 13.9734 11.8418C13.9734 12.6893 13.8121 13.4175 13.488 14.029C13.1757 14.6315 12.7226 15.1497 12.1673 15.5396C11.592 15.9402 10.9495 16.2341 10.2702 16.4074C9.55809 16.5944 8.82473 16.6883 8.08846 16.6868H0V0H7.86879ZM7.39284 6.74196C8.04371 6.74196 8.58339 6.58738 9.00917 6.27415C9.43224 5.96498 9.63699 5.45513 9.63699 4.7568C9.63699 4.36899 9.56784 4.04897 9.43224 3.79812C9.30013 3.55678 9.10461 3.35611 8.86679 3.21776C8.61788 3.07013 8.34316 2.97119 8.05727 2.92622C7.74565 2.8681 7.42912 2.8404 7.11215 2.8435H3.67472V6.74196H7.39284V6.74196ZM7.59759 13.846C7.95964 13.846 8.30406 13.8148 8.62814 13.7416C8.95493 13.6711 9.24511 13.5572 9.4919 13.3877C9.73869 13.2249 9.94209 13.0039 10.0885 12.7219C10.2363 12.4425 10.3082 12.0778 10.3082 11.6398C10.3082 10.7801 10.0655 10.1685 9.58547 9.79836C9.10409 9.43224 8.45864 9.25054 7.6681 9.25054H3.67472V13.8473H7.59759V13.846ZM19.2116 13.7904C19.7093 14.2758 20.4266 14.5199 21.3595 14.5199C22.028 14.5199 22.6056 14.3504 23.0924 14.0141C23.5725 13.6765 23.8654 13.3158 23.9779 12.9429H26.9001C26.4309 14.3965 25.719 15.4352 24.7454 16.0603C23.784 16.6881 22.6138 17 21.2469 17C20.295 17 19.4381 16.8468 18.6706 16.543C17.9339 16.2562 17.2682 15.813 16.7193 15.244C16.1795 14.6618 15.7622 13.977 15.4921 13.2304C15.1953 12.4047 15.0484 11.5327 15.0582 10.6553C15.0582 9.75225 15.2087 8.90747 15.5043 8.12778C15.785 7.3741 16.2158 6.68533 16.7708 6.1033C17.32 5.53378 17.9709 5.08495 18.7289 4.75544C19.526 4.42021 20.3837 4.2531 21.2483 4.26458C22.2707 4.26458 23.1643 4.46255 23.9318 4.86121C24.6761 5.24176 25.3214 5.79054 25.8166 6.46399C26.3088 7.13249 26.66 7.89862 26.8784 8.75696C27.0967 9.61394 27.1726 10.5089 27.1102 11.4459H18.3899C18.3912 12.4005 18.7126 13.3049 19.2116 13.7904V13.7904ZM23.0246 7.44301C22.6301 7.00638 21.9629 6.77044 21.1466 6.77044C20.6164 6.77044 20.1784 6.85858 19.8259 7.04028C19.5035 7.2031 19.2175 7.42959 18.9852 7.70607C18.7811 7.95709 18.6298 8.24673 18.5404 8.55763C18.4622 8.81687 18.4117 9.08369 18.3899 9.35359H23.7894C23.7108 8.50746 23.4206 7.88235 23.0246 7.44301V7.44301ZM17.7119 1.12005H24.4769V2.76757H17.7119V1.12005Z" fill="black"/>
</svg>
