<svg width="21" height="22" viewBox="0 0 21 22" fill="none" xmlns="http://www.w3.org/2000/svg">
<path d="M2.47613 4.95226C3.84366 4.95226 4.95226 3.84366 4.95226 2.47613C4.95226 1.1086 3.84366 0 2.47613 0C1.1086 0 0 1.1086 0 2.47613C0 3.84366 1.1086 4.95226 2.47613 4.95226Z" fill="black"/>
<path d="M6.95082 8.26132V21.9989H11.2162V15.2054C11.2162 13.4128 11.5534 11.6768 13.776 11.6768C15.9681 11.6768 15.9953 13.7262 15.9953 15.3185V22H20.2629V14.4664C20.2629 10.7657 19.4662 7.92181 15.1408 7.92181C13.0642 7.92181 11.6722 9.06142 11.103 10.1399H11.0453V8.26132H6.95082V8.26132ZM0 8.26132H4.27212V21.9989H0V8.26132Z" fill="black"/>
</svg>
