<svg width="20" height="25" viewBox="0 0 20 25" fill="none" xmlns="http://www.w3.org/2000/svg">
<path d="M8.8351e-05 8.96777C8.8351e-05 7.88692 0.189029 6.8658 0.561355 5.91276C0.917084 4.98709 1.4456 4.1375 2.11873 3.40928C2.7905 2.69063 3.55923 2.06919 4.4027 1.56294C5.2681 1.03939 6.205 0.644416 7.18403 0.390392C8.17487 0.13021 9.19515 -0.00100219 10.2196 5.76312e-06C11.802 5.76312e-06 13.2746 0.334821 14.6403 1.00167C15.9881 1.65636 17.1353 2.66108 17.962 3.91081C18.815 5.182 19.2388 6.6199 19.2388 8.22312C19.2388 9.1845 19.1443 10.125 18.9512 11.0447C18.7616 11.9639 18.4602 12.8565 18.0537 13.7024C17.6663 14.5213 17.1597 15.2784 16.5505 15.9489C15.9382 16.6087 15.1967 17.1355 14.3721 17.4965C13.4769 17.8889 12.5084 18.0863 11.5311 18.0759C10.8517 18.0759 10.1737 17.9161 9.50411 17.5952C8.83448 17.2756 8.3538 16.8366 8.06483 16.274C7.96341 16.6644 7.82448 17.2284 7.63971 17.9661C7.46188 18.7024 7.3424 19.1776 7.28961 19.3929C7.23404 19.6068 7.13123 19.9639 6.98119 20.4585C6.87944 20.8243 6.7489 21.1815 6.59081 21.5268L6.1129 22.4632C5.90622 22.865 5.67517 23.2538 5.42104 23.6274C5.16958 23.9914 4.85838 24.4262 4.48745 24.9264L4.28044 25L4.1429 24.85C3.99425 23.2759 3.91784 22.334 3.91784 22.0228C3.91784 21.1017 4.02759 20.0681 4.24432 18.9205C4.45688 17.7744 4.79309 16.3337 5.2446 14.6013C5.69611 12.8702 5.95452 11.8519 6.02398 11.5504C5.70584 10.9016 5.54468 10.0542 5.54468 9.01223C5.54468 8.18005 5.80448 7.40067 6.32545 6.66713C6.84782 5.93638 7.50773 5.571 8.30795 5.571C8.92062 5.571 9.39575 5.77383 9.73612 6.18089C10.0779 6.58656 10.2446 7.09781 10.2446 7.72159C10.2446 8.38289 10.0251 9.3401 9.5833 10.5918C9.14151 11.845 8.92201 12.7799 8.92201 13.4009C8.92201 14.0303 9.14707 14.5568 9.5972 14.9694C10.0414 15.3823 10.6289 15.606 11.2351 15.5932C11.7853 15.5932 12.2952 15.4682 12.7689 15.2167C13.2352 14.9726 13.6389 14.6241 13.9484 14.1984C14.6225 13.2735 15.1031 12.2222 15.3613 11.1073C15.4947 10.521 15.5975 9.96388 15.6614 9.44013C15.7295 8.91359 15.7586 8.41623 15.7586 7.94388C15.7586 6.21145 15.2085 4.86108 14.1151 3.89414C13.0162 2.92721 11.5852 2.44652 9.82504 2.44652C7.82309 2.44652 6.14902 3.09392 4.80837 4.39289C3.46633 5.6877 2.79114 7.33399 2.79114 9.33037C2.79114 9.77077 2.85783 10.1959 2.98425 10.6071C3.1079 11.017 3.24265 11.3434 3.38853 11.5852C3.53301 11.8227 3.66916 12.0547 3.79281 12.2687C3.91784 12.4826 3.98314 12.6355 3.98314 12.7271C3.98314 13.0078 3.90951 13.3732 3.76085 13.8247C3.60664 14.2762 3.42465 14.5013 3.20514 14.5013C3.18431 14.5013 3.09817 14.486 2.94813 14.454C2.42849 14.2989 1.95921 14.0089 1.58803 13.6135C1.19408 13.2037 0.883186 12.7216 0.672497 12.1937C0.462408 11.6676 0.298775 11.1242 0.183473 10.5696C0.0588986 10.0448 -0.00266397 9.50711 8.8351e-05 8.96777V8.96777Z" fill="black"/>
</svg>
